<svg width="176" height="102" viewBox="0 0 176 102" fill="none" xmlns="http://www.w3.org/2000/svg">
<g filter="url(#filter0_dd_0_102)">
<rect x="3" y="2" width="170" height="96" fill="white"/>
</g>
<g clip-path="url(#clip0_0_102)">
<path fill-rule="evenodd" clip-rule="evenodd" d="M100.899 59.0249C94.9137 63.5732 86.238 65.9999 78.7685 65.9999C68.295 65.9999 58.8661 62.0063 51.7329 55.3641C51.1724 54.8417 51.6746 54.1299 52.3471 54.5367C60.0453 59.1543 69.5638 61.9323 79.3962 61.9323C86.0273 61.9323 93.322 60.5179 100.029 57.5827C101.043 57.139 101.89 58.2668 100.899 59.0249Z" fill="#FF9900"/>
<path fill-rule="evenodd" clip-rule="evenodd" d="M103.388 56.0898C102.626 55.0821 98.3304 55.6137 96.4025 55.8494C95.8152 55.9234 95.7255 55.3964 96.2545 55.0174C99.6755 52.5352 105.289 53.2517 105.943 54.0837C106.598 54.9203 105.773 60.7213 102.558 63.49C102.065 63.9153 101.594 63.6888 101.814 63.1249C102.536 61.2667 104.154 57.1021 103.388 56.0898Z" fill="#FF9900"/>
<path fill-rule="evenodd" clip-rule="evenodd" d="M96.5369 37.4944V35.0816C96.5369 34.7164 96.8059 34.4714 97.1287 34.4714H107.607C107.943 34.4714 108.212 34.721 108.212 35.0816V37.1477C108.207 37.4944 107.925 37.9474 107.423 38.6638L101.993 46.6557C104.011 46.6049 106.141 46.9146 107.97 47.9777C108.382 48.2181 108.494 48.5694 108.526 48.916V51.4906C108.526 51.8419 108.149 52.2533 107.755 52.0407C104.531 50.2981 100.249 50.1086 96.6848 52.0592C96.3216 52.2626 95.9406 51.8558 95.9406 51.5045V49.0593C95.9406 48.6664 95.945 47.9962 96.3261 47.3999L102.617 38.0999H97.1421C96.8059 38.0999 96.5369 37.8549 96.5369 37.4944Z" fill="black"/>
<path fill-rule="evenodd" clip-rule="evenodd" d="M58.3147 52.5492H55.1269C54.822 52.5261 54.5799 52.2904 54.5575 51.99V35.1233C54.5575 34.7859 54.831 34.5178 55.1717 34.5178H58.1443C58.4537 34.5316 58.7003 34.7766 58.7227 35.0817V37.2865H58.781C59.5566 35.1557 61.0138 34.1619 62.9776 34.1619C64.9727 34.1619 66.2191 35.1557 67.1158 37.2865C67.887 35.1557 69.6401 34.1619 71.5187 34.1619C72.8548 34.1619 74.3164 34.7304 75.2086 36.0062C76.2174 37.4252 76.0112 39.4867 76.0112 41.294L76.0067 51.9391C76.0067 52.2765 75.7332 52.5492 75.3924 52.5492H72.2091C71.8908 52.5261 71.6352 52.2627 71.6352 51.9391V42.9996C71.6352 42.2878 71.698 40.5129 71.5456 39.838C71.3079 38.7056 70.5951 38.3866 69.6715 38.3866C68.9003 38.3866 68.0933 38.9182 67.766 39.7687C67.4387 40.6192 67.47 42.0428 67.47 42.9996V51.9391C67.47 52.2765 67.1966 52.5492 66.8558 52.5492H63.6725C63.3497 52.5261 63.0986 52.2627 63.0986 51.9391L63.0941 42.9996C63.0941 41.1184 63.3945 38.3496 61.1303 38.3496C58.8393 38.3496 58.9289 41.049 58.9289 42.9996V51.9391C58.9289 52.2765 58.6554 52.5492 58.3147 52.5492" fill="black"/>
<path fill-rule="evenodd" clip-rule="evenodd" d="M117.233 34.1619C121.963 34.1619 124.523 38.3496 124.523 43.6745C124.523 48.8191 121.694 52.9005 117.233 52.9005C112.588 52.9005 110.059 48.7128 110.059 43.4942C110.059 38.2433 112.619 34.1619 117.233 34.1619ZM117.259 37.6055C114.91 37.6055 114.762 40.9058 114.762 42.9627C114.762 45.0242 114.731 49.4246 117.233 49.4246C119.703 49.4246 119.82 45.8747 119.82 43.7115C119.82 42.2878 119.761 40.5868 119.344 39.2371C118.986 38.0631 118.273 37.6055 117.259 37.6055Z" fill="black"/>
<path fill-rule="evenodd" clip-rule="evenodd" d="M130.656 52.5492H127.482C127.164 52.5261 126.908 52.2627 126.908 51.9391L126.904 35.0678C126.931 34.7581 127.195 34.5178 127.518 34.5178H130.473C130.751 34.5316 130.979 34.7258 131.042 34.9893V37.5685H131.1C131.992 35.262 133.243 34.1619 135.445 34.1619C136.875 34.1619 138.269 34.6934 139.166 36.1494C140 37.4991 140 39.7687 140 41.4003V52.0177C139.964 52.3135 139.7 52.5492 139.386 52.5492H136.189C135.898 52.5261 135.655 52.3043 135.624 52.0177V42.8564C135.624 41.0121 135.83 38.3127 133.629 38.3127C132.853 38.3127 132.14 38.8488 131.786 39.6624C131.338 40.6931 131.28 41.7193 131.28 42.8564V51.9391C131.275 52.2765 130.997 52.5492 130.656 52.5492" fill="black"/>
<path fill-rule="evenodd" clip-rule="evenodd" d="M88.184 44.4926C88.184 45.7729 88.2154 46.8407 87.5877 47.9777C87.0811 48.9022 86.274 49.4707 85.3818 49.4707C84.1578 49.4707 83.4404 48.5093 83.4404 47.0903C83.4404 44.2892 85.875 43.7807 88.184 43.7807V44.4926ZM91.3987 52.5029C91.188 52.6971 90.8831 52.7109 90.6455 52.5815C89.5873 51.6756 89.3946 51.2549 88.8162 50.3906C87.0676 52.2302 85.8257 52.7803 83.5615 52.7803C80.8759 52.7803 78.791 51.0747 78.791 47.6588C78.791 44.9918 80.1899 43.1752 82.1895 42.2877C83.9202 41.5019 86.3368 41.3633 88.184 41.146V40.7208C88.184 39.9396 88.2423 39.0152 87.7939 38.3403C87.4084 37.7348 86.6641 37.4852 86.005 37.4852C84.79 37.4852 83.7094 38.1277 83.4449 39.4589C83.3911 39.7547 83.1804 40.0459 82.889 40.0598L79.7998 39.7177C79.5398 39.6577 79.2483 39.4404 79.3246 39.029C80.033 35.1648 83.4225 34 86.4534 34C88.0047 34 90.0312 34.4252 91.2552 35.6363C92.8065 37.1293 92.6586 39.1215 92.6586 41.2893V46.4108C92.6586 47.95 93.2773 48.6249 93.8601 49.4569C94.0619 49.7527 94.1067 50.1086 93.8467 50.3305C93.1966 50.8898 92.0398 51.9298 91.4032 52.5122L91.3987 52.5029" fill="black"/>
<path fill-rule="evenodd" clip-rule="evenodd" d="M46.393 44.4928C46.393 45.7732 46.4244 46.8409 45.7967 47.978C45.29 48.9024 44.4875 49.471 43.5908 49.471C42.3668 49.471 41.6539 48.5095 41.6539 47.0905C41.6539 44.2894 44.0884 43.781 46.393 43.781V44.4928ZM49.6077 52.5032C49.3969 52.6973 49.0921 52.7112 48.8544 52.5818C47.7963 51.6758 47.608 51.2552 47.0252 50.3908C45.2766 52.2305 44.0391 52.7805 41.7705 52.7805C39.0893 52.7805 37 51.0749 37 47.6591C37 44.992 38.4033 43.1755 40.3985 42.288C42.1291 41.5022 44.5458 41.3635 46.393 41.1463V40.721C46.393 39.9399 46.4513 39.0154 46.0074 38.3406C45.6173 37.735 44.8731 37.4854 44.2185 37.4854C43.0034 37.4854 41.9184 38.1279 41.6539 39.4591C41.6001 39.755 41.3894 40.0462 41.1024 40.06L38.0088 39.718C37.7487 39.6579 37.4618 39.4407 37.5335 39.0293C38.2464 35.1651 41.6315 34.0002 44.6623 34.0002C46.2136 34.0002 48.2402 34.4255 49.4642 35.6365C51.0155 37.1295 50.8675 39.1217 50.8675 41.2896V46.411C50.8675 47.9503 51.4863 48.6251 52.0691 49.4571C52.2754 49.7529 52.3202 50.1089 52.0602 50.3307C51.41 50.89 50.2533 51.93 49.6166 52.5124L49.6077 52.5032" fill="black"/>
</g>
<defs>
<filter id="filter0_dd_0_102" x="0" y="0" width="176" height="102" filterUnits="userSpaceOnUse" color-interpolation-filters="sRGB">
<feFlood flood-opacity="0" result="BackgroundImageFix"/>
<feColorMatrix in="SourceAlpha" type="matrix" values="0 0 0 0 0 0 0 0 0 0 0 0 0 0 0 0 0 0 127 0" result="hardAlpha"/>
<feOffset dy="1"/>
<feGaussianBlur stdDeviation="1.5"/>
<feColorMatrix type="matrix" values="0 0 0 0 0 0 0 0 0 0 0 0 0 0 0 0 0 0 0.1 0"/>
<feBlend mode="normal" in2="BackgroundImageFix" result="effect1_dropShadow_0_102"/>
<feColorMatrix in="SourceAlpha" type="matrix" values="0 0 0 0 0 0 0 0 0 0 0 0 0 0 0 0 0 0 127 0" result="hardAlpha"/>
<feOffset dy="1"/>
<feGaussianBlur stdDeviation="1"/>
<feColorMatrix type="matrix" values="0 0 0 0 0 0 0 0 0 0 0 0 0 0 0 0 0 0 0.06 0"/>
<feBlend mode="normal" in2="effect1_dropShadow_0_102" result="effect2_dropShadow_0_102"/>
<feBlend mode="normal" in="SourceGraphic" in2="effect2_dropShadow_0_102" result="shape"/>
</filter>
<clipPath id="clip0_0_102">
<rect width="103" height="32" fill="white" transform="translate(37 34)"/>
</clipPath>
</defs>
</svg>
