<svg width="176" height="102" viewBox="0 0 176 102" fill="none" xmlns="http://www.w3.org/2000/svg">
<g filter="url(#filter0_dd_0_122)">
<rect x="3" y="2" width="170" height="96" fill="white"/>
</g>
<path fill-rule="evenodd" clip-rule="evenodd" d="M104.2 43.3099L102.2 39.9299L98.65 41.6199L96.65 38.2299L93.1 39.9299L91.11 36.5299L87.56 38.2299L85.56 34.8399L82.01 36.5399L80.02 33.1399L76.46 34.8399L68.93 59.3599L78.08 62.1599C78.4247 61.0547 79.1533 60.1093 80.1342 59.4944C81.1151 58.8796 82.2836 58.6359 83.4285 58.8074C84.5734 58.9789 85.6192 59.5542 86.3769 60.4295C87.1346 61.3048 87.5543 62.4222 87.56 63.5799V63.6799C87.58 64.1199 87.53 64.5599 87.4 64.9999L96.7 67.8499L104.2 43.3099Z" fill="#D61920"/>
<path fill-rule="evenodd" clip-rule="evenodd" d="M76.78 57.34C76.5487 57.3017 76.3388 57.1818 76.1883 57.002C76.0379 56.8222 75.9569 56.5944 75.96 56.36V44.36C75.9587 44.2283 75.9836 44.0976 76.0334 43.9757C76.0832 43.8538 76.1568 43.743 76.2499 43.6499C76.343 43.5568 76.4538 43.4832 76.5757 43.4334C76.6977 43.3836 76.8283 43.3586 76.96 43.36H85.63C86.1408 43.3587 86.6469 43.458 87.1194 43.6523C87.5919 43.8465 88.0214 44.132 88.3836 44.4923C88.7457 44.8525 89.0334 45.2806 89.2301 45.7521C89.4268 46.2236 89.5287 46.7291 89.53 47.24V56.36C89.5297 56.5073 89.4969 56.6527 89.434 56.7858C89.371 56.9189 89.2794 57.0365 89.1657 57.1301C89.052 57.2237 88.9191 57.2911 88.7763 57.3274C88.6336 57.3637 88.4846 57.368 88.34 57.34C88.1105 57.2996 87.903 57.1788 87.7545 56.9992C87.6061 56.8196 87.5265 56.593 87.53 56.36V47.25C87.53 46.7461 87.3298 46.2628 86.9735 45.9065C86.6172 45.5502 86.1339 45.35 85.63 45.35H83.74V56.35C83.7408 56.484 83.7146 56.6167 83.6631 56.7404C83.6116 56.8641 83.5357 56.9762 83.44 57.07C83.3262 57.1829 83.1866 57.2664 83.0333 57.3135C82.88 57.3605 82.7176 57.3696 82.56 57.34C82.3287 57.3017 82.1188 57.1818 81.9683 57.002C81.8179 56.8222 81.7369 56.5944 81.74 56.36V45.35H77.96V56.35C77.9609 56.4971 77.9294 56.6426 77.8677 56.7761C77.8059 56.9096 77.7155 57.0279 77.6028 57.1224C77.4901 57.217 77.3579 57.2855 77.2157 57.3231C77.0735 57.3607 76.9247 57.3665 76.78 57.34ZM91.2 62.57C90.967 62.5315 90.7557 62.4101 90.605 62.2282C90.4543 62.0463 90.3744 61.8161 90.38 61.58C90.3811 61.3176 90.4853 61.0662 90.67 60.88C90.8546 60.6916 91.1062 60.5837 91.37 60.58C92.22 60.58 92.95 60.04 93.19 59.23L94.22 55.8L90.85 44.53C90.8098 44.4039 90.795 44.2712 90.8065 44.1394C90.818 44.0076 90.8555 43.8794 90.9169 43.7622C90.9783 43.645 91.0623 43.5411 91.1641 43.4566C91.2659 43.3722 91.3835 43.3087 91.51 43.27C91.7619 43.2002 92.031 43.2297 92.2617 43.3525C92.4925 43.4753 92.6672 43.682 92.75 43.93L95.25 52.33L97.79 43.93C97.91 43.47 98.42 43.16 98.94 43.26L99.01 43.27C99.55 43.44 99.85 44.01 99.69 44.54L96.22 56.1L95.12 59.8C94.8732 60.5962 94.3837 61.2955 93.72 61.8C93.0449 62.3063 92.2238 62.58 91.38 62.58C91.3198 62.5823 91.2596 62.5789 91.2 62.57Z" fill="#FEFEFE"/>
<path fill-rule="evenodd" clip-rule="evenodd" d="M30.08 55.1499H32.04C32.5625 55.1499 33.0636 54.9423 33.433 54.5729C33.8024 54.2034 34.01 53.7023 34.01 53.1799V47.4099C34.0113 47.1512 33.9617 46.8947 33.8639 46.6552C33.7661 46.4157 33.6221 46.1978 33.4401 46.0139C33.2581 45.8301 33.0416 45.6839 32.8031 45.5836C32.5646 45.4834 32.3087 45.4312 32.05 45.4299H30.08V55.1299V55.1499ZM28.85 57.2099C28.6099 57.1693 28.3922 57.0442 28.2363 56.8571C28.0804 56.67 27.9966 56.4334 28 56.1899V38.2699C27.9982 38.1328 28.0239 37.9967 28.0754 37.8696C28.1269 37.7425 28.2033 37.627 28.3 37.5299C28.417 37.4083 28.5622 37.3174 28.7226 37.2651C28.883 37.2128 29.0538 37.2007 29.22 37.2299C29.72 37.3299 30.08 37.7499 30.08 38.2599V43.3599H32.04C32.5714 43.3586 33.0978 43.4621 33.5891 43.6645C34.0804 43.867 34.527 44.1643 34.9032 44.5396C35.2794 44.9149 35.5779 45.3607 35.7815 45.8515C35.9852 46.3423 36.09 46.8685 36.09 47.3999V53.1699C36.0874 54.2405 35.6609 55.2666 34.9038 56.0237C34.1467 56.7807 33.1207 57.2072 32.05 57.2099H29.04C28.9732 57.2138 28.9061 57.2105 28.84 57.1999L28.85 57.2099Z" fill="#333545"/>
<path fill-rule="evenodd" clip-rule="evenodd" d="M43.14 45.3499C43.0277 45.3303 42.914 45.3203 42.8 45.3199C42.5406 45.3172 42.2832 45.3664 42.043 45.4644C41.8027 45.5625 41.5845 45.7075 41.401 45.891C41.2176 46.0744 41.0726 46.2927 40.9745 46.5329C40.8765 46.7731 40.8273 47.0305 40.83 47.2899V53.2999C40.8287 53.559 40.8787 53.8158 40.9773 54.0554C41.0758 54.295 41.2208 54.5127 41.404 54.6959C41.5872 54.8791 41.8049 55.0241 42.0445 55.1227C42.2842 55.2212 42.5409 55.2712 42.8 55.2699C43.3225 55.2699 43.8236 55.0624 44.193 54.6929C44.5624 54.3235 44.77 53.8224 44.77 53.2999V47.2999C44.77 46.3299 44.08 45.5199 43.14 45.3499ZM42.09 57.2999C41.1524 57.135 40.3032 56.6442 39.6921 55.9142C39.081 55.1842 38.7474 54.2619 38.75 53.3099V47.2999C38.7482 46.768 38.8526 46.2411 39.0569 45.75C39.2612 45.259 39.5615 44.8136 39.94 44.4399C40.3155 44.0645 40.7614 43.767 41.2523 43.5645C41.7431 43.362 42.2691 43.2585 42.8 43.2599C43.8715 43.2599 44.8991 43.6856 45.6567 44.4432C46.4144 45.2009 46.84 46.2284 46.84 47.2999V53.3099C46.84 54.3899 46.42 55.4099 45.65 56.1799C45.276 56.5546 44.8318 56.8517 44.3427 57.0541C43.8536 57.2566 43.3293 57.3606 42.8 57.3599C42.562 57.3609 42.3244 57.3408 42.09 57.2999ZM53.89 45.3599C53.7777 45.3402 53.664 45.3302 53.55 45.3299C53.2906 45.3272 53.0332 45.3764 52.793 45.4744C52.5527 45.5725 52.3345 45.7175 52.151 45.901C51.9676 46.0844 51.8226 46.3027 51.7245 46.5429C51.6265 46.7831 51.5773 47.0405 51.58 47.2999V53.3099C51.5787 53.569 51.6287 53.8258 51.7273 54.0654C51.8258 54.305 51.9708 54.5227 52.154 54.7059C52.3372 54.8891 52.5549 55.0341 52.7945 55.1327C53.0342 55.2312 53.2909 55.2812 53.55 55.2799C53.8091 55.2812 54.0658 55.2312 54.3055 55.1327C54.5451 55.0341 54.7628 54.8891 54.946 54.7059C55.1291 54.5227 55.2742 54.305 55.3727 54.0654C55.4713 53.8258 55.5213 53.569 55.52 53.3099V47.2999C55.52 46.3399 54.83 45.5299 53.89 45.3599ZM52.84 57.2999C51.9042 57.1329 51.0573 56.6412 50.4483 55.9114C49.8392 55.1816 49.507 54.2605 49.51 53.3099V47.2999C49.5116 46.7106 49.6417 46.1287 49.8914 45.5948C50.1411 45.061 50.5043 44.5881 50.9557 44.2091C51.407 43.8301 51.9356 43.5542 52.5046 43.4006C53.0736 43.247 53.6693 43.2195 54.25 43.3199C55.1877 43.4825 56.038 43.9708 56.6508 44.699C57.2637 45.4271 57.5998 46.3482 57.6 47.2999V53.3099C57.6012 53.8441 57.4957 54.3732 57.2896 54.866C57.0836 55.3589 56.7811 55.8056 56.4 56.1799C56.026 56.5546 55.5818 56.8517 55.0927 57.0541C54.6036 57.2566 54.0793 57.3606 53.55 57.3599C53.31 57.3599 53.07 57.3399 52.84 57.2999ZM61.11 57.3399C60.8699 57.2994 60.6522 57.1742 60.4963 56.9872C60.3404 56.8001 60.2566 56.5634 60.26 56.3199V38.2699C60.26 37.9899 60.36 37.7199 60.56 37.5299C60.678 37.4135 60.8223 37.3272 60.9807 37.2785C61.1391 37.2297 61.307 37.2199 61.47 37.2499C61.97 37.3299 62.34 37.7599 62.34 38.2699V48.9499L67.12 43.5899C67.36 43.3299 67.72 43.2099 68.08 43.2699C68.2615 43.3003 68.4316 43.3787 68.5725 43.4971C68.7134 43.6155 68.82 43.7694 68.8813 43.943C68.9425 44.1165 68.9562 44.3033 68.9208 44.4839C68.8854 44.6645 68.8022 44.8323 68.68 44.9699L65.07 48.9999L68.8 55.8299C68.8672 55.9451 68.9106 56.0726 68.9278 56.2048C68.945 56.337 68.9355 56.4714 68.9 56.5999C68.8613 56.7324 68.7962 56.8556 68.7086 56.9622C68.6209 57.0688 68.5125 57.1564 68.39 57.2199C68.1783 57.3416 67.9302 57.3842 67.69 57.3399C67.5406 57.3147 67.3986 57.2568 67.2742 57.1703C67.1497 57.0839 67.0458 56.9711 66.97 56.8399L63.61 50.6599L62.33 52.0699V56.3199C62.33 56.5957 62.2204 56.8603 62.0254 57.0553C61.8304 57.2503 61.5658 57.3599 61.29 57.3599C61.22 57.3599 61.16 57.3599 61.09 57.3399H61.11ZM106.92 57.3299C106.358 57.2357 105.823 57.0172 105.356 56.6902C104.889 56.3632 104.501 55.9361 104.22 55.4399C104.083 55.1968 104.047 54.9093 104.12 54.6399C104.2 54.3799 104.37 54.1599 104.6 54.0199C104.814 53.9032 105.061 53.8644 105.3 53.9099C105.6 53.9599 105.87 54.1399 106.02 54.4099C106.29 54.8699 106.72 55.1699 107.25 55.2599C107.523 55.3074 107.804 55.2925 108.07 55.2163C108.337 55.1401 108.583 55.0046 108.79 54.8199C109.19 54.4499 109.39 53.9199 109.34 53.3999C109.329 53.1334 109.255 52.8732 109.125 52.6404C108.995 52.4076 108.811 52.2088 108.59 52.0599L105.79 50.0699C105.334 49.7496 104.954 49.3326 104.677 48.8486C104.401 48.3646 104.234 47.8256 104.19 47.2699C104.154 46.7093 104.246 46.1478 104.459 45.628C104.672 45.1082 105.001 44.6438 105.42 44.2699C105.829 43.8896 106.318 43.6052 106.851 43.4374C107.383 43.2697 107.947 43.2227 108.5 43.2999C109.68 43.4999 110.64 44.1799 111.19 45.1399C111.323 45.3798 111.357 45.6617 111.286 45.9265C111.215 46.1912 111.045 46.4183 110.81 46.5599C110.598 46.6816 110.35 46.7242 110.11 46.6799C109.961 46.6547 109.819 46.5968 109.694 46.5103C109.57 46.4239 109.466 46.3111 109.39 46.1799C109.265 45.9678 109.094 45.786 108.89 45.6477C108.686 45.5094 108.454 45.4179 108.21 45.3799C107.961 45.3348 107.705 45.3484 107.462 45.4196C107.219 45.4907 106.995 45.6175 106.81 45.7899C106.629 45.9608 106.488 46.1694 106.396 46.401C106.304 46.6325 106.265 46.8814 106.28 47.1299C106.3 47.6199 106.58 48.0999 107 48.3799L109.8 50.3299C110.275 50.6627 110.668 51.0997 110.949 51.6074C111.23 52.1152 111.391 52.6804 111.42 53.2599C111.466 53.8367 111.377 54.4163 111.16 54.9528C110.943 55.4892 110.604 55.9676 110.17 56.3499C109.748 56.7424 109.243 57.0358 108.693 57.2088C108.143 57.3818 107.561 57.43 106.99 57.3499L106.91 57.3299H106.92ZM114.95 57.3599C114.71 57.3177 114.492 57.1924 114.335 57.006C114.178 56.8195 114.091 56.5838 114.09 56.3399V38.2899C114.089 38.153 114.115 38.0171 114.166 37.8903C114.218 37.7636 114.295 37.6484 114.392 37.5515C114.488 37.4547 114.604 37.3781 114.73 37.3264C114.857 37.2746 114.993 37.2486 115.13 37.2499L115.33 37.2599C115.83 37.3599 116.17 37.7699 116.17 38.2899V43.3899H118.14C118.671 43.3886 119.197 43.4922 119.688 43.6948C120.178 43.8973 120.624 44.1948 121 44.5703C121.375 44.9457 121.673 45.3916 121.875 45.8823C122.078 46.3731 122.181 46.899 122.18 47.4299V56.3299C122.181 56.4809 122.149 56.6302 122.085 56.7673C122.022 56.9045 121.929 57.026 121.814 57.1233C121.698 57.2206 121.563 57.2914 121.417 57.3305C121.271 57.3697 121.119 57.3763 120.97 57.3499C120.47 57.2599 120.11 56.8299 120.11 56.3199V47.4199C120.11 47.1617 120.059 46.906 119.96 46.6675C119.861 46.4291 119.715 46.2126 119.532 46.0304C119.349 45.8483 119.132 45.7041 118.893 45.6062C118.654 45.5083 118.398 45.4586 118.14 45.4599H116.17V56.3299C116.171 56.4819 116.139 56.6323 116.075 56.7702C116.011 56.9082 115.917 57.0303 115.801 57.1278C115.684 57.2253 115.547 57.2958 115.4 57.3342C115.253 57.3726 115.099 57.378 114.95 57.3499V57.3599ZM129.23 45.3699C128.947 45.3185 128.655 45.3301 128.377 45.404C128.099 45.4779 127.84 45.6123 127.619 45.7975C127.399 45.9827 127.222 46.2143 127.101 46.4757C126.98 46.7371 126.918 47.0219 126.92 47.3099V53.3199C126.919 53.5781 126.968 53.8341 127.066 54.073C127.164 54.312 127.308 54.5292 127.491 54.7123C127.673 54.8954 127.889 55.0406 128.128 55.1398C128.366 55.2389 128.622 55.2899 128.88 55.2899C129.4 55.2899 129.9 55.0899 130.27 54.7199C130.455 54.5371 130.602 54.319 130.702 54.0786C130.801 53.8381 130.852 53.5802 130.85 53.3199V47.2999C130.85 46.3399 130.17 45.5199 129.22 45.3599L129.23 45.3699ZM128.17 57.2899C127.235 57.125 126.388 56.6353 125.779 55.9072C125.17 55.1791 124.837 54.2593 124.84 53.3099V47.2999C124.84 46.7097 124.969 46.1267 125.218 45.5916C125.467 45.0565 125.83 44.5824 126.282 44.2023C126.733 43.8222 127.263 43.5454 127.832 43.3913C128.402 43.2371 128.998 43.2094 129.58 43.3099C130.519 43.4728 131.371 43.9626 131.984 44.6928C132.597 45.423 132.932 46.3465 132.93 47.2999V53.3099C132.93 53.8425 132.825 54.3698 132.618 54.861C132.412 55.3521 132.11 55.7971 131.73 56.1699C131.271 56.6305 130.708 56.973 130.088 57.1681C129.468 57.3631 128.81 57.4049 128.17 57.2899Z" fill="#333545"/>
<path fill-rule="evenodd" clip-rule="evenodd" d="M148.9 44.5398C148.934 44.4128 148.943 44.2802 148.926 44.1498C148.909 44.0194 148.866 43.8937 148.8 43.7798C148.724 43.6584 148.625 43.5534 148.509 43.471C148.392 43.3885 148.26 43.3303 148.12 43.2998C147.862 43.251 147.595 43.3026 147.374 43.4438C147.153 43.585 146.994 43.8054 146.93 44.0598C146.93 44.1098 145.81 48.6198 144.93 52.0498L144.91 52.1198L144.89 52.0498L142.89 44.0698C142.851 43.875 142.754 43.6967 142.611 43.559C142.468 43.4213 142.286 43.3308 142.09 43.2998C142.031 43.2881 141.97 43.2814 141.91 43.2798C141.45 43.2798 141.05 43.5998 140.92 44.0598C140.91 44.1098 139.79 48.6198 138.92 52.0498L138.9 52.1198L138.88 52.0498C138.03 48.6198 136.88 44.1098 136.88 44.0598C136.833 43.8684 136.731 43.6947 136.588 43.5599C136.444 43.425 136.264 43.3346 136.07 43.2998C135.904 43.2704 135.732 43.2828 135.572 43.3359C135.411 43.389 135.267 43.4812 135.151 43.6042C135.035 43.7272 134.951 43.8771 134.907 44.0404C134.863 44.2037 134.861 44.3753 134.9 44.5398L137.91 56.5698C137.967 56.7902 138.095 56.9859 138.273 57.1268C138.452 57.2677 138.672 57.3461 138.9 57.3498C139.39 57.3498 139.78 57.0298 139.88 56.5698L141.88 48.5798L141.91 48.5098L141.93 48.5798C142.81 52.0498 143.93 56.5798 143.93 56.5798C143.99 56.796 144.117 56.9874 144.293 57.1259C144.47 57.2645 144.686 57.3429 144.91 57.3498C145.14 57.357 145.366 57.2827 145.547 57.14C145.728 56.9974 145.853 56.7955 145.9 56.5698L148.9 44.5398Z" fill="#333545"/>
<defs>
<filter id="filter0_dd_0_122" x="0" y="0" width="176" height="102" filterUnits="userSpaceOnUse" color-interpolation-filters="sRGB">
<feFlood flood-opacity="0" result="BackgroundImageFix"/>
<feColorMatrix in="SourceAlpha" type="matrix" values="0 0 0 0 0 0 0 0 0 0 0 0 0 0 0 0 0 0 127 0" result="hardAlpha"/>
<feOffset dy="1"/>
<feGaussianBlur stdDeviation="1.5"/>
<feColorMatrix type="matrix" values="0 0 0 0 0 0 0 0 0 0 0 0 0 0 0 0 0 0 0.1 0"/>
<feBlend mode="normal" in2="BackgroundImageFix" result="effect1_dropShadow_0_122"/>
<feColorMatrix in="SourceAlpha" type="matrix" values="0 0 0 0 0 0 0 0 0 0 0 0 0 0 0 0 0 0 127 0" result="hardAlpha"/>
<feOffset dy="1"/>
<feGaussianBlur stdDeviation="1"/>
<feColorMatrix type="matrix" values="0 0 0 0 0 0 0 0 0 0 0 0 0 0 0 0 0 0 0.06 0"/>
<feBlend mode="normal" in2="effect1_dropShadow_0_122" result="effect2_dropShadow_0_122"/>
<feBlend mode="normal" in="SourceGraphic" in2="effect2_dropShadow_0_122" result="shape"/>
</filter>
</defs>
</svg>
