<svg width="406" height="64" viewBox="0 0 406 64" fill="none" xmlns="http://www.w3.org/2000/svg">
<rect x="0.5" y="0.5" width="405" height="63" rx="1.5" stroke="#D4D4D8"/>
<path d="M25.376 38V26.608H29.968C31.216 26.608 32.1653 26.8853 32.816 27.44C33.4773 27.984 33.808 28.7733 33.808 29.808C33.808 30.7893 33.472 31.5627 32.8 32.128C32.128 32.6933 31.1893 32.976 29.984 32.976L31.184 32.752C31.6 32.752 31.9573 32.8693 32.256 33.104C32.5547 33.328 32.7947 33.6907 32.976 34.192L34.416 38H32.832L31.424 34.208C31.2533 33.7493 31.0133 33.4453 30.704 33.296C30.4053 33.1467 30.0053 33.072 29.504 33.072H26.832V38H25.376ZM26.832 31.872H29.824C30.688 31.872 31.328 31.7013 31.744 31.36C32.16 31.008 32.368 30.496 32.368 29.824C32.368 29.1413 32.16 28.6347 31.744 28.304C31.3387 27.9733 30.6987 27.808 29.824 27.808H26.832V31.872ZM42.997 37.056C42.645 37.3867 42.1917 37.648 41.637 37.84C41.0823 38.0213 40.517 38.112 39.941 38.112C39.0983 38.112 38.373 37.9467 37.765 37.616C37.157 37.2853 36.6877 36.8107 36.357 36.192C36.0263 35.5627 35.861 34.816 35.861 33.952C35.861 33.12 36.021 32.3893 36.341 31.76C36.6717 31.1307 37.125 30.64 37.701 30.288C38.277 29.9253 38.9383 29.744 39.685 29.744C40.4103 29.744 41.029 29.904 41.541 30.224C42.0637 30.544 42.4583 31.0027 42.725 31.6C43.0023 32.1867 43.141 32.8907 43.141 33.712V33.968H37.141V33.072H42.309L41.861 33.648C41.8823 32.7413 41.7063 32.048 41.333 31.568C40.9597 31.088 40.4157 30.848 39.701 30.848C38.9543 30.848 38.3677 31.1147 37.941 31.648C37.525 32.1707 37.317 32.9067 37.317 33.856C37.317 34.88 37.541 35.6533 37.989 36.176C38.437 36.688 39.0983 36.944 39.973 36.944C40.4423 36.944 40.8903 36.8693 41.317 36.72C41.7437 36.56 42.149 36.3253 42.533 36.016L42.997 37.056ZM48.6278 41.568C47.4011 41.568 46.3344 41.296 45.4278 40.752L45.6838 39.584C46.1851 39.872 46.6598 40.08 47.1078 40.208C47.5664 40.336 48.0731 40.4 48.6278 40.4C49.3851 40.4 49.9558 40.1973 50.3398 39.792C50.7344 39.3973 50.9318 38.8053 50.9318 38.016V35.872L51.1078 35.712C50.9798 36.128 50.7771 36.4907 50.4998 36.8C50.2331 37.0987 49.9024 37.3333 49.5078 37.504C49.1238 37.6747 48.6811 37.76 48.1798 37.76C47.4758 37.76 46.8518 37.5947 46.3078 37.264C45.7638 36.9227 45.3371 36.4533 45.0278 35.856C44.7291 35.2587 44.5798 34.56 44.5798 33.76C44.5798 32.96 44.7291 32.2613 45.0278 31.664C45.3371 31.056 45.7638 30.5867 46.3078 30.256C46.8518 29.9147 47.4758 29.744 48.1798 29.744C48.9158 29.744 49.5398 29.9253 50.0518 30.288C50.5744 30.6507 50.9264 31.152 51.1078 31.792L50.9158 31.664V29.952H52.3718V37.888C52.3718 39.1147 52.0518 40.032 51.4118 40.64C50.7824 41.2587 49.8544 41.568 48.6278 41.568ZM48.4998 36.56C49.2571 36.56 49.8491 36.3147 50.2758 35.824C50.7024 35.3227 50.9158 34.6347 50.9158 33.76C50.9158 32.8853 50.7024 32.1973 50.2758 31.696C49.8491 31.1947 49.2571 30.944 48.4998 30.944C47.7424 30.944 47.1451 31.1947 46.7078 31.696C46.2704 32.1973 46.0518 32.8853 46.0518 33.76C46.0518 34.6453 46.2704 35.3333 46.7078 35.824C47.1451 36.3147 47.7424 36.56 48.4998 36.56ZM54.7941 38V29.952H56.2501V38H54.7941ZM54.6661 26.48H56.3781V28.064H54.6661V26.48ZM62.0768 38.112C61.2981 38.112 60.6154 37.9413 60.0288 37.6C59.4528 37.2587 59.0048 36.7787 58.6848 36.16C58.3648 35.5307 58.2048 34.7893 58.2048 33.936C58.2048 33.0933 58.3648 32.3573 58.6848 31.728C59.0048 31.088 59.4528 30.5973 60.0288 30.256C60.6154 29.9147 61.2981 29.744 62.0768 29.744C62.8661 29.744 63.5488 29.9147 64.1248 30.256C64.7008 30.5973 65.1488 31.088 65.4688 31.728C65.7888 32.3573 65.9488 33.0933 65.9488 33.936C65.9488 34.7893 65.7888 35.5307 65.4688 36.16C65.1488 36.7787 64.7008 37.2587 64.1248 37.6C63.5488 37.9413 62.8661 38.112 62.0768 38.112ZM62.0768 36.928C62.8448 36.928 63.4368 36.6773 63.8528 36.176C64.2688 35.664 64.4768 34.9173 64.4768 33.936C64.4768 32.9653 64.2634 32.224 63.8368 31.712C63.4208 31.2 62.8341 30.944 62.0768 30.944C61.3301 30.944 60.7434 31.2 60.3168 31.712C59.8901 32.224 59.6768 32.9653 59.6768 33.936C59.6768 34.9173 59.8848 35.664 60.3008 36.176C60.7168 36.6773 61.3088 36.928 62.0768 36.928ZM67.9191 38V32.208C67.9191 31.8347 67.9085 31.4613 67.8871 31.088C67.8765 30.704 67.8445 30.3253 67.7911 29.952H69.1671L69.3111 31.6L69.1511 31.696C69.3858 31.0667 69.7591 30.5867 70.2711 30.256C70.7938 29.9147 71.3911 29.744 72.0631 29.744C73.9938 29.744 74.9591 30.816 74.9591 32.96V38H73.5031V33.04C73.5031 32.3147 73.3591 31.7867 73.0711 31.456C72.7938 31.1147 72.3458 30.944 71.7271 30.944C71.0125 30.944 70.4418 31.168 70.0151 31.616C69.5885 32.0533 69.3751 32.6453 69.3751 33.392V38H67.9191Z" fill="#52525B"/>
<path d="M77.117 36.224H78.893V38H77.117V36.224ZM77.117 30.128H78.893V31.92H77.117V30.128ZM85.8534 38H84.3334L89.3734 26.608H90.6374L95.6934 38H94.1894L89.7734 27.712H90.2694L85.8534 38ZM86.4934 35.136L87.0214 33.92H92.9734L93.5014 35.136H86.4934ZM97.1223 38V26.224H98.5783V38H97.1223ZM101.013 38V26.224H102.469V38H101.013Z" fill="#27272A"/>
<g clip-path="url(#clip0_1_90)">
<path d="M113 30L117 34L121 30" stroke="#27272A" stroke-width="1.25" stroke-linecap="round" stroke-linejoin="round"/>
</g>
<path d="M159.376 38V26.608H160.848V38H159.376ZM163.435 38V32.208C163.435 31.8347 163.424 31.4613 163.403 31.088C163.392 30.704 163.36 30.3253 163.307 29.952H164.683L164.827 31.6L164.667 31.696C164.901 31.0667 165.275 30.5867 165.787 30.256C166.309 29.9147 166.907 29.744 167.579 29.744C169.509 29.744 170.475 30.816 170.475 32.96V38H169.019V33.04C169.019 32.3147 168.875 31.7867 168.587 31.456C168.309 31.1147 167.861 30.944 167.243 30.944C166.528 30.944 165.957 31.168 165.531 31.616C165.104 32.0533 164.891 32.6453 164.891 33.392V38H163.435ZM180.089 38H178.649V35.872L178.841 36.064C178.659 36.7147 178.313 37.2213 177.801 37.584C177.289 37.936 176.67 38.112 175.945 38.112C175.251 38.112 174.633 37.9413 174.089 37.6C173.555 37.248 173.134 36.7573 172.825 36.128C172.526 35.488 172.377 34.7467 172.377 33.904C172.377 33.0613 172.526 32.3307 172.825 31.712C173.123 31.0827 173.539 30.5973 174.073 30.256C174.617 29.9147 175.241 29.744 175.945 29.744C176.67 29.744 177.289 29.9253 177.801 30.288C178.313 30.6507 178.659 31.152 178.841 31.792L178.633 31.984V26.224H180.089V38ZM176.265 36.928C177.022 36.928 177.609 36.672 178.025 36.16C178.441 35.6373 178.649 34.896 178.649 33.936C178.649 32.9867 178.441 32.2507 178.025 31.728C177.619 31.2053 177.033 30.944 176.265 30.944C175.507 30.944 174.915 31.2053 174.489 31.728C174.062 32.24 173.849 32.9653 173.849 33.904C173.849 34.864 174.062 35.6107 174.489 36.144C174.915 36.6667 175.507 36.928 176.265 36.928ZM185.377 38.112C184.406 38.112 183.676 37.8453 183.185 37.312C182.705 36.768 182.465 35.968 182.465 34.912V29.952H183.921V34.896C183.921 35.5893 184.06 36.1013 184.337 36.432C184.625 36.752 185.062 36.912 185.649 36.912C186.332 36.912 186.881 36.6933 187.297 36.256C187.713 35.808 187.921 35.216 187.921 34.48V29.952H189.393V38H187.969V36.272L188.161 36.192C187.948 36.8213 187.59 37.3013 187.089 37.632C186.588 37.952 186.017 38.112 185.377 38.112ZM194.578 38.112C193.202 38.112 192.108 37.7653 191.298 37.072L191.762 36.016C192.188 36.3467 192.631 36.592 193.09 36.752C193.559 36.9013 194.071 36.976 194.626 36.976C195.202 36.976 195.639 36.88 195.938 36.688C196.247 36.4853 196.402 36.1973 196.402 35.824C196.402 35.5253 196.295 35.2907 196.082 35.12C195.879 34.9387 195.538 34.7893 195.058 34.672L193.714 34.352C193.02 34.2027 192.487 33.936 192.114 33.552C191.751 33.168 191.57 32.704 191.57 32.16C191.57 31.6907 191.698 31.2747 191.954 30.912C192.22 30.5493 192.588 30.2667 193.058 30.064C193.527 29.8507 194.082 29.744 194.722 29.744C195.287 29.744 195.82 29.8347 196.322 30.016C196.834 30.1973 197.266 30.4587 197.618 30.8L197.154 31.84C196.77 31.52 196.375 31.2853 195.97 31.136C195.564 30.976 195.143 30.896 194.706 30.896C194.162 30.896 193.735 31.0027 193.426 31.216C193.127 31.4293 192.978 31.7173 192.978 32.08C192.978 32.3893 193.074 32.6347 193.266 32.816C193.458 32.9973 193.762 33.1413 194.178 33.248L195.538 33.584C196.306 33.744 196.871 34.0107 197.234 34.384C197.596 34.7467 197.778 35.216 197.778 35.792C197.778 36.496 197.49 37.0613 196.914 37.488C196.338 37.904 195.559 38.112 194.578 38.112ZM198.581 31.072V29.952H203.861V31.072H198.581ZM203.829 36.736V37.952C203.647 38.0053 203.461 38.0427 203.269 38.064C203.087 38.096 202.89 38.112 202.677 38.112C201.887 38.112 201.263 37.888 200.805 37.44C200.357 36.992 200.133 36.3307 200.133 35.456V27.904L201.589 27.392V35.296C201.589 35.712 201.647 36.0373 201.765 36.272C201.893 36.496 202.058 36.656 202.261 36.752C202.474 36.8373 202.714 36.88 202.981 36.88C203.13 36.88 203.269 36.8693 203.397 36.848C203.525 36.8267 203.669 36.7893 203.829 36.736ZM205.404 38V32.208C205.404 31.8347 205.393 31.4613 205.372 31.088C205.361 30.704 205.329 30.3253 205.276 29.952H206.652L206.828 31.952L206.652 31.888C206.79 31.184 207.105 30.656 207.596 30.304C208.097 29.9413 208.657 29.76 209.276 29.76C209.425 29.76 209.558 29.7707 209.676 29.792C209.804 29.8027 209.921 29.824 210.028 29.856L210.012 31.184C209.745 31.088 209.446 31.04 209.116 31.04C208.572 31.04 208.134 31.1573 207.804 31.392C207.473 31.6267 207.233 31.9253 207.084 32.288C206.934 32.6507 206.86 33.04 206.86 33.456V38H205.404ZM211.442 41.632L211.138 40.512C211.629 40.3947 212.039 40.256 212.37 40.096C212.711 39.9467 212.994 39.7493 213.218 39.504C213.442 39.2693 213.639 38.9547 213.81 38.56L214.338 37.36L214.674 36.88L217.538 29.952H218.994L215.234 38.688C214.946 39.3493 214.615 39.8773 214.242 40.272C213.869 40.6773 213.447 40.9813 212.978 41.184C212.519 41.3867 212.007 41.536 211.442 41.632ZM214.354 38.448L210.722 29.952H212.242L215.074 36.88L214.354 38.448Z" fill="#52525B"/>
<path d="M220.117 36.224H221.893V38H220.117V36.224ZM220.117 30.128H221.893V31.92H220.117V30.128ZM228.853 38H227.333L232.373 26.608H233.637L238.693 38H237.189L232.773 27.712H233.269L228.853 38ZM229.493 35.136L230.021 33.92H235.973L236.501 35.136H229.493ZM240.122 38V26.224H241.578V38H240.122ZM244.013 38V26.224H245.469V38H244.013Z" fill="#27272A"/>
<g clip-path="url(#clip1_1_90)">
<path d="M254 30L258 34L262 30" stroke="#27272A" stroke-width="1.25" stroke-linecap="round" stroke-linejoin="round"/>
</g>
<path d="M302.096 38V27.856H298.192V26.608H307.504V27.856H303.6V38H302.096ZM307.364 41.632L307.06 40.512C307.551 40.3947 307.961 40.256 308.292 40.096C308.633 39.9467 308.916 39.7493 309.14 39.504C309.364 39.2693 309.561 38.9547 309.732 38.56L310.26 37.36L310.596 36.88L313.46 29.952H314.916L311.156 38.688C310.868 39.3493 310.537 39.8773 310.164 40.272C309.791 40.6773 309.369 40.9813 308.9 41.184C308.441 41.3867 307.929 41.536 307.364 41.632ZM310.276 38.448L306.644 29.952H308.164L310.996 36.88L310.276 38.448ZM316.263 41.456V32.208C316.263 31.8347 316.252 31.4613 316.231 31.088C316.22 30.704 316.188 30.3253 316.135 29.952H317.511L317.655 31.6L317.527 31.808C317.708 31.1467 318.055 30.64 318.567 30.288C319.079 29.9253 319.692 29.744 320.407 29.744C321.111 29.744 321.73 29.9253 322.263 30.288C322.807 30.64 323.228 31.1307 323.527 31.76C323.836 32.3893 323.991 33.1253 323.991 33.968C323.991 34.8107 323.836 35.5467 323.527 36.176C323.228 36.7947 322.812 37.2747 322.279 37.616C321.746 37.9467 321.122 38.112 320.407 38.112C319.692 38.112 319.079 37.936 318.567 37.584C318.055 37.2213 317.708 36.7147 317.527 36.064L317.719 35.888V41.456H316.263ZM320.103 36.928C320.86 36.928 321.447 36.672 321.863 36.16C322.279 35.648 322.487 34.9173 322.487 33.968C322.487 33.0187 322.279 32.2773 321.863 31.744C321.447 31.2107 320.86 30.944 320.103 30.944C319.335 30.944 318.743 31.2053 318.327 31.728C317.911 32.24 317.703 32.976 317.703 33.936C317.703 34.896 317.911 35.6373 318.327 36.16C318.743 36.672 319.335 36.928 320.103 36.928ZM332.575 37.056C332.223 37.3867 331.77 37.648 331.215 37.84C330.66 38.0213 330.095 38.112 329.519 38.112C328.676 38.112 327.951 37.9467 327.343 37.616C326.735 37.2853 326.266 36.8107 325.935 36.192C325.604 35.5627 325.439 34.816 325.439 33.952C325.439 33.12 325.599 32.3893 325.919 31.76C326.25 31.1307 326.703 30.64 327.279 30.288C327.855 29.9253 328.516 29.744 329.263 29.744C329.988 29.744 330.607 29.904 331.119 30.224C331.642 30.544 332.036 31.0027 332.303 31.6C332.58 32.1867 332.719 32.8907 332.719 33.712V33.968H326.719V33.072H331.887L331.439 33.648C331.46 32.7413 331.284 32.048 330.911 31.568C330.538 31.088 329.994 30.848 329.279 30.848C328.532 30.848 327.946 31.1147 327.519 31.648C327.103 32.1707 326.895 32.9067 326.895 33.856C326.895 34.88 327.119 35.6533 327.567 36.176C328.015 36.688 328.676 36.944 329.551 36.944C330.02 36.944 330.468 36.8693 330.895 36.72C331.322 36.56 331.727 36.3253 332.111 36.016L332.575 37.056Z" fill="#52525B"/>
<path d="M334.414 36.224H336.19V38H334.414V36.224ZM334.414 30.128H336.19V31.92H334.414V30.128ZM343.15 38H341.63L346.67 26.608H347.934L352.99 38H351.486L347.07 27.712H347.566L343.15 38ZM343.79 35.136L344.318 33.92H350.27L350.798 35.136H343.79ZM354.419 38V26.224H355.875V38H354.419ZM358.31 38V26.224H359.766V38H358.31Z" fill="#27272A"/>
<g clip-path="url(#clip2_1_90)">
<path d="M370 30L374 34L378 30" stroke="#27272A" stroke-width="1.25" stroke-linecap="round" stroke-linejoin="round"/>
</g>
<defs>
<clipPath id="clip0_1_90">
<rect width="16" height="16" fill="white" transform="translate(109 24)"/>
</clipPath>
<clipPath id="clip1_1_90">
<rect width="16" height="16" fill="white" transform="translate(250 24)"/>
</clipPath>
<clipPath id="clip2_1_90">
<rect width="16" height="16" fill="white" transform="translate(366 24)"/>
</clipPath>
</defs>
</svg>
