<svg width="176" height="102" viewBox="0 0 176 102" fill="none" xmlns="http://www.w3.org/2000/svg">
<g filter="url(#filter0_dd_0_113)">
<rect x="3" y="2" width="170" height="96" fill="white"/>
</g>
<g clip-path="url(#clip0_0_113)">
<path d="M81.4273 50.4103C81.4273 54.8521 77.9382 58.1251 73.6562 58.1251C69.3742 58.1251 65.885 54.8521 65.885 50.4103C65.885 45.9373 69.3742 42.6956 73.6562 42.6956C77.9382 42.6956 81.4273 45.9373 81.4273 50.4103ZM78.0255 50.4103C78.0255 47.6347 76.0032 45.7356 73.6562 45.7356C71.3091 45.7356 69.2869 47.6347 69.2869 50.4103C69.2869 53.1582 71.3091 55.0851 73.6562 55.0851C76.0032 55.0851 78.0255 53.1547 78.0255 50.4103Z" fill="#EA4335"/>
<path d="M98.192 50.4103C98.192 54.8521 94.7029 58.1251 90.4209 58.1251C86.1389 58.1251 82.6497 54.8521 82.6497 50.4103C82.6497 45.9408 86.1389 42.6956 90.4209 42.6956C94.7029 42.6956 98.192 45.9373 98.192 50.4103ZM94.7902 50.4103C94.7902 47.6347 92.7679 45.7356 90.4209 45.7356C88.0738 45.7356 86.0516 47.6347 86.0516 50.4103C86.0516 53.1582 88.0738 55.0851 90.4209 55.0851C92.7679 55.0851 94.7902 53.1547 94.7902 50.4103Z" fill="#FBBC05"/>
<path d="M114.258 43.1616V57.0121C114.258 62.7095 110.884 65.0364 106.896 65.0364C103.141 65.0364 100.881 62.5356 100.029 60.4903L102.991 59.2625C103.518 60.5182 104.811 61.9999 106.892 61.9999C109.445 61.9999 111.028 60.4312 111.028 57.4782V56.3686H110.909C110.147 57.3043 108.68 58.1216 106.829 58.1216C102.956 58.1216 99.4075 54.7616 99.4075 50.4382C99.4075 46.0834 102.956 42.6956 106.829 42.6956C108.677 42.6956 110.144 43.5129 110.909 44.4208H111.028V43.1651H114.258V43.1616ZM111.269 50.4382C111.269 47.7216 109.449 45.7356 107.133 45.7356C104.786 45.7356 102.82 47.7216 102.82 50.4382C102.82 53.1269 104.786 55.0851 107.133 55.0851C109.449 55.0851 111.269 53.1269 111.269 50.4382Z" fill="#4285F4"/>
<path d="M119.585 35.0435V57.6522H116.267V35.0435H119.585Z" fill="#34A853"/>
<path d="M132.514 52.9495L135.155 54.7026C134.303 55.9582 132.249 58.1217 128.7 58.1217C124.3 58.1217 121.013 54.7339 121.013 50.4069C121.013 45.8191 124.328 42.6921 128.32 42.6921C132.34 42.6921 134.306 45.8782 134.949 47.6L135.302 48.4765L124.946 52.7478C125.739 54.2956 126.972 55.0852 128.7 55.0852C130.433 55.0852 131.634 54.2365 132.514 52.9495ZM124.387 50.1739L131.309 47.3113C130.929 46.3478 129.783 45.6765 128.435 45.6765C126.706 45.6765 124.3 47.1965 124.387 50.1739Z" fill="#EA4335"/>
<path d="M53.3257 48.4036V45.1305H64.4009C64.5091 45.701 64.565 46.3757 64.565 47.1062C64.565 49.5618 63.8909 52.5984 61.7185 54.7618C59.6054 56.9531 56.9056 58.1218 53.3292 58.1218C46.7001 58.1218 41.1259 52.7444 41.1259 46.1427C41.1259 39.541 46.7001 34.1636 53.3292 34.1636C56.9964 34.1636 59.6089 35.5966 61.5718 37.4644L59.2527 39.774C57.8452 38.4592 55.9382 37.4366 53.3257 37.4366C48.4849 37.4366 44.6988 41.3218 44.6988 46.1427C44.6988 50.9636 48.4849 54.8488 53.3257 54.8488C56.4656 54.8488 58.2538 53.5931 59.3994 52.4523C60.3284 51.5271 60.9396 50.2053 61.1806 48.4001L53.3257 48.4036Z" fill="#4285F4"/>
</g>
<defs>
<filter id="filter0_dd_0_113" x="0" y="0" width="176" height="102" filterUnits="userSpaceOnUse" color-interpolation-filters="sRGB">
<feFlood flood-opacity="0" result="BackgroundImageFix"/>
<feColorMatrix in="SourceAlpha" type="matrix" values="0 0 0 0 0 0 0 0 0 0 0 0 0 0 0 0 0 0 127 0" result="hardAlpha"/>
<feOffset dy="1"/>
<feGaussianBlur stdDeviation="1.5"/>
<feColorMatrix type="matrix" values="0 0 0 0 0 0 0 0 0 0 0 0 0 0 0 0 0 0 0.1 0"/>
<feBlend mode="normal" in2="BackgroundImageFix" result="effect1_dropShadow_0_113"/>
<feColorMatrix in="SourceAlpha" type="matrix" values="0 0 0 0 0 0 0 0 0 0 0 0 0 0 0 0 0 0 127 0" result="hardAlpha"/>
<feOffset dy="1"/>
<feGaussianBlur stdDeviation="1"/>
<feColorMatrix type="matrix" values="0 0 0 0 0 0 0 0 0 0 0 0 0 0 0 0 0 0 0.06 0"/>
<feBlend mode="normal" in2="effect1_dropShadow_0_113" result="effect2_dropShadow_0_113"/>
<feBlend mode="normal" in="SourceGraphic" in2="effect2_dropShadow_0_113" result="shape"/>
</filter>
<clipPath id="clip0_0_113">
<rect width="95" height="32" fill="white" transform="translate(41 34)"/>
</clipPath>
</defs>
</svg>
