<svg width="176" height="102" viewBox="0 0 176 102" fill="none" xmlns="http://www.w3.org/2000/svg">
<g filter="url(#filter0_dd_0_145)">
<rect x="3" y="2" width="170" height="96" fill="white"/>
</g>
<g clip-path="url(#clip0_0_145)">
<path d="M70.0636 51.9753L69.3364 54.0311H69.2758C69.1546 53.5675 68.9324 52.8621 68.5689 52.0156L64.6705 42.2404H60.853V57.8203H63.3778V48.2063C63.3778 47.6017 63.3778 46.9164 63.3576 46.0699C63.3374 45.6466 63.297 45.3241 63.2768 45.0823H63.3374C63.4586 45.6869 63.6 46.1303 63.701 46.4125L68.3871 57.78H70.1646L74.8102 46.3117C74.9112 46.0497 75.0122 45.5257 75.1132 45.0823H75.1738C75.1132 46.2311 75.0728 47.259 75.0526 47.8838V57.7598H77.7391V42.2001H74.0629L70.0636 51.9753ZM80.2841 46.5939H82.9099V57.7598H80.2841V46.5939ZM81.6172 41.8776C81.1728 41.8776 80.8093 42.0389 80.5063 42.321C80.2033 42.6032 80.0417 42.966 80.0417 43.4094C80.0417 43.8327 80.2033 44.1955 80.5063 44.4776C80.8093 44.7598 81.1728 44.9009 81.6172 44.9009C82.0616 44.9009 82.4453 44.7396 82.7281 44.4776C83.0311 44.1955 83.1927 43.8327 83.1927 43.4094C83.1927 42.9862 83.0311 42.6234 82.7281 42.321C82.4655 42.0389 82.0818 41.8776 81.6172 41.8776ZM92.2215 46.4931C91.7367 46.3924 91.2318 46.3319 90.747 46.3319C89.5553 46.3319 88.4645 46.5939 87.5556 47.1179C86.6467 47.642 85.9195 48.3675 85.4549 49.2745C84.9702 50.2017 84.7278 51.2699 84.7278 52.4993C84.7278 53.5675 84.9702 54.5148 85.4347 55.3815C85.8993 56.228 86.5457 56.9133 87.4142 57.3769C88.2424 57.8404 89.2119 58.0823 90.3026 58.0823C91.5549 58.0823 92.6255 57.8203 93.4738 57.3365L93.494 57.3164V54.8978L93.393 54.9784C93.0093 55.2606 92.5649 55.5024 92.1205 55.6435C91.6559 55.8048 91.2318 55.8854 90.8682 55.8854C89.8179 55.8854 88.9897 55.5831 88.404 54.9179C87.798 54.273 87.495 53.3862 87.495 52.2776C87.495 51.1288 87.798 50.2218 88.4242 49.5567C89.0503 48.8916 89.8785 48.5489 90.8884 48.5489C91.7367 48.5489 92.6053 48.8311 93.393 49.3955L93.494 49.4761V46.9164L93.4738 46.8962C93.1304 46.7551 92.7467 46.5939 92.2215 46.4931ZM100.887 46.4125C100.24 46.4125 99.6344 46.6141 99.1093 47.0373C98.6649 47.4001 98.3619 47.9241 98.0993 48.5489H98.0791V46.5939H95.4533V57.7598H98.0791V52.0559C98.0791 51.0885 98.2811 50.2823 98.7255 49.6978C99.1698 49.0931 99.7354 48.7908 100.422 48.7908C100.665 48.7908 100.907 48.8513 101.21 48.8916C101.493 48.9722 101.695 49.0528 101.836 49.1536L101.937 49.2342V46.6141L101.876 46.5939C101.695 46.473 101.331 46.4125 100.887 46.4125ZM108.037 46.352C106.199 46.352 104.724 46.8962 103.694 47.9644C102.644 49.0327 102.139 50.504 102.139 52.3582C102.139 54.0916 102.664 55.5024 103.674 56.5303C104.684 57.5381 106.058 58.0621 107.774 58.0621C109.572 58.0621 111.006 57.5179 112.036 56.4296C113.087 55.3412 113.592 53.89 113.592 52.0962C113.592 50.3226 113.107 48.9117 112.117 47.8838C111.168 46.8559 109.774 46.352 108.037 46.352ZM110.138 54.9381C109.653 55.5629 108.885 55.8652 107.936 55.8652C106.987 55.8652 106.219 55.5629 105.674 54.8978C105.128 54.273 104.866 53.366 104.866 52.2172C104.866 51.028 105.149 50.121 105.674 49.4761C106.219 48.8311 106.967 48.5086 107.916 48.5086C108.845 48.5086 109.572 48.811 110.097 49.4358C110.622 50.0606 110.905 50.9675 110.905 52.1567C110.865 53.366 110.643 54.3133 110.138 54.9381ZM119.449 51.2296C118.621 50.8869 118.096 50.6249 117.854 50.4032C117.652 50.2017 117.551 49.9195 117.551 49.5567C117.551 49.2544 117.672 48.952 117.975 48.7505C118.278 48.5489 118.621 48.4482 119.126 48.4482C119.571 48.4482 120.035 48.5288 120.479 48.6497C120.924 48.7706 121.328 48.952 121.651 49.1939L121.752 49.2745V46.8156L121.691 46.7955C121.388 46.6745 120.984 46.5536 120.5 46.4528C120.015 46.3722 119.571 46.3319 119.207 46.3319C117.955 46.3319 116.924 46.6342 116.117 47.2993C115.309 47.9241 114.925 48.7706 114.925 49.7582C114.925 50.2823 115.006 50.7458 115.187 51.1288C115.369 51.5117 115.632 51.8745 115.995 52.1769C116.359 52.459 116.884 52.7815 117.611 53.0838C118.217 53.3458 118.682 53.5474 118.965 53.7086C119.247 53.8699 119.429 54.0513 119.571 54.1924C119.671 54.3536 119.732 54.5551 119.732 54.8172C119.732 55.5629 119.167 55.9257 118.015 55.9257C117.571 55.9257 117.106 55.8451 116.561 55.6637C116.016 55.4823 115.511 55.2203 115.086 54.9179L114.985 54.8373V57.397L115.046 57.4172C115.43 57.5986 115.894 57.7195 116.46 57.8606C117.025 57.9613 117.53 58.042 117.975 58.042C119.328 58.042 120.439 57.7396 121.227 57.0745C122.035 56.4296 122.459 55.6032 122.459 54.535C122.459 53.7893 122.257 53.1241 121.813 52.6203C121.227 52.1365 120.5 51.6327 119.449 51.2296ZM129.387 46.352C127.549 46.352 126.074 46.8962 125.044 47.9644C124.014 49.0327 123.489 50.504 123.489 52.3582C123.489 54.0916 124.014 55.5024 125.024 56.5303C126.034 57.5381 127.408 58.0621 129.124 58.0621C130.922 58.0621 132.356 57.5179 133.386 56.4296C134.437 55.3412 134.942 53.89 134.942 52.0962C134.942 50.3226 134.457 48.9117 133.467 47.8838C132.518 46.8559 131.124 46.352 129.387 46.352ZM131.468 54.9381C130.983 55.5629 130.215 55.8652 129.266 55.8652C128.296 55.8652 127.549 55.5629 127.004 54.8978C126.458 54.273 126.196 53.366 126.196 52.2172C126.196 51.028 126.478 50.121 127.004 49.4761C127.549 48.8311 128.296 48.5086 129.246 48.5086C130.155 48.5086 130.902 48.811 131.427 49.4358C131.952 50.0606 132.235 50.9675 132.235 52.1567C132.235 53.366 131.972 54.3133 131.468 54.9381ZM148.98 48.7505V46.5939H146.334V43.2885L146.253 43.3086L143.748 44.0544L143.688 44.0745V46.5939H139.729V45.1831C139.729 44.5381 139.89 44.0342 140.173 43.7117C140.456 43.3893 140.88 43.228 141.405 43.228C141.769 43.228 142.153 43.3086 142.577 43.49L142.678 43.5505V41.273L142.617 41.2528C142.254 41.1319 141.769 41.0513 141.143 41.0513C140.355 41.0513 139.668 41.2327 139.042 41.535C138.416 41.8776 137.951 42.3412 137.608 42.966C137.265 43.5706 137.083 44.2559 137.083 45.042V46.5939H135.245V48.7303H137.083V57.7598H139.729V48.7505H143.688V54.4947C143.688 56.8528 144.799 58.042 147.021 58.042C147.384 58.042 147.768 57.9815 148.131 57.921C148.515 57.8404 148.798 57.7396 148.96 57.659L148.98 57.6389V55.4823L148.879 55.5629C148.717 55.6637 148.576 55.7443 148.333 55.8048C148.131 55.8652 147.95 55.8854 147.808 55.8854C147.283 55.8854 146.92 55.7644 146.657 55.4621C146.415 55.18 146.293 54.7164 146.293 54.0311V48.7505H148.98Z" fill="#737373"/>
<path d="M27 37H39.3818V49.355H27V37Z" fill="#F25022"/>
<path d="M40.6744 37H53.0562V49.355H40.6744V37Z" fill="#7FBA00"/>
<path d="M27 50.645H39.3818V63.0001H27V50.645Z" fill="#00A4EF"/>
<path d="M40.6744 50.645H53.0562V63.0001H40.6744V50.645Z" fill="#FFB900"/>
</g>
<defs>
<filter id="filter0_dd_0_145" x="0" y="0" width="176" height="102" filterUnits="userSpaceOnUse" color-interpolation-filters="sRGB">
<feFlood flood-opacity="0" result="BackgroundImageFix"/>
<feColorMatrix in="SourceAlpha" type="matrix" values="0 0 0 0 0 0 0 0 0 0 0 0 0 0 0 0 0 0 127 0" result="hardAlpha"/>
<feOffset dy="1"/>
<feGaussianBlur stdDeviation="1.5"/>
<feColorMatrix type="matrix" values="0 0 0 0 0 0 0 0 0 0 0 0 0 0 0 0 0 0 0.1 0"/>
<feBlend mode="normal" in2="BackgroundImageFix" result="effect1_dropShadow_0_145"/>
<feColorMatrix in="SourceAlpha" type="matrix" values="0 0 0 0 0 0 0 0 0 0 0 0 0 0 0 0 0 0 127 0" result="hardAlpha"/>
<feOffset dy="1"/>
<feGaussianBlur stdDeviation="1"/>
<feColorMatrix type="matrix" values="0 0 0 0 0 0 0 0 0 0 0 0 0 0 0 0 0 0 0.06 0"/>
<feBlend mode="normal" in2="effect1_dropShadow_0_145" result="effect2_dropShadow_0_145"/>
<feBlend mode="normal" in="SourceGraphic" in2="effect2_dropShadow_0_145" result="shape"/>
</filter>
<clipPath id="clip0_0_145">
<rect width="122" height="26" fill="white" transform="translate(27 37)"/>
</clipPath>
</defs>
</svg>
