<svg width="18" height="15" viewBox="0 0 18 15" fill="none" xmlns="http://www.w3.org/2000/svg">
<path d="M17.3596 2.55001L15.2656 0.450014C15.1952 0.379483 15.0997 0.339844 15.0001 0.339844C14.9004 0.339844 14.8049 0.379483 14.7346 0.450014L5.89056 9.30001C5.8202 9.37055 5.72468 9.41018 5.62506 9.41018C5.52544 9.41018 5.42991 9.37055 5.35956 9.30001L3.26556 7.20001C3.1952 7.12948 3.09968 7.08984 3.00006 7.08984C2.90044 7.08984 2.80491 7.12948 2.73456 7.20001L0.640557 9.30001C0.494163 9.44645 0.494163 9.68383 0.640557 9.83026L5.35956 14.55C5.42991 14.6205 5.52544 14.6602 5.62506 14.6602C5.72468 14.6602 5.8202 14.6205 5.89056 14.55L17.3596 3.07501C17.5025 2.9292 17.5025 2.69583 17.3596 2.55001Z" fill="#27272A"/>
</svg>
